<?xml version="1.0" encoding="UTF-8" standalone="no"?>
<!DOCTYPE svg PUBLIC "-//W3C//DTD SVG 1.1//EN" "http://www.w3.org/Graphics/SVG/1.1/DTD/svg11.dtd">
<svg width="100%" height="100%" viewBox="0 0 1603 296" version="1.1" xmlns="http://www.w3.org/2000/svg" xmlns:xlink="http://www.w3.org/1999/xlink" xml:space="preserve" xmlns:serif="http://www.serif.com/" style="fill-rule:evenodd;clip-rule:evenodd;stroke-linejoin:round;stroke-miterlimit:2;">
    <g id="Layer-1" serif:id="Layer 1" transform="matrix(3.779528,0,0,3.779528,278.712487,-47.238613)">
        <g transform="matrix(0.102374,0,0,0.102374,-86.560302,-4.538793)">
            <path d="M836.052,166.492C819.173,165.685 802.052,171.991 787.65,186.189C774.484,199.17 761.703,212.636 748.504,225.589C739.188,235.088 726.219,246.23 717.759,255.964C715.931,257.083 706.255,267.186 703.795,269.559C689.936,282.756 676.266,296.15 662.783,309.732C648.136,324.24 632.726,344.343 611.322,344.783C591.354,345.192 584.066,335.866 571.081,323.377C560.026,312.764 549.116,302 538.358,291.086L496.618,249.903C478.31,231.586 459.322,212.061 440.478,194.45C424.546,176.797 414.906,168.588 390.169,167.084C331.835,163.538 299.532,232.159 340.671,274.092C355.114,288.817 370.036,302.948 384.798,317.351C392.24,324.452 405.757,338.579 413.257,344.664C418.02,350.128 425.773,357.303 431.121,362.523L465.352,395.871L519.421,449.061C529.52,458.916 544.755,474.857 556.05,481.989C570.446,491.188 586.904,496.658 603.943,497.907C609.193,498.286 620.741,498.3 625.556,496.528C657.182,493.981 678.156,471.433 699.14,450.808L746.577,404.02C778.193,373.551 809.463,342.726 840.379,311.547C848.888,303.015 859.432,293.972 867.331,285.493L868.491,284.592C899.742,260.05 909.297,221.556 883.007,189.476C869.57,175.219 852.932,167.299 836.052,166.492ZM334.705,426.189C324.678,426.418 314.526,428.978 305.058,434.214C272.032,452.478 270.787,477.53 265.628,511.348L256.54,571.757C251.468,604.218 246.611,636.711 241.975,669.237C240.165,681.681 238.122,694.226 236.438,706.668C231.309,744.558 239.005,789.664 257.494,823.075C282.999,870.086 326.367,904.839 377.804,919.492C391.078,923.273 412.386,926.33 426.283,925.467C431.341,925.586 438.005,925.927 442.895,925.527C453.157,926.254 466.451,925.967 476.906,925.986L542.586,925.891L780.283,925.82C808.425,926.501 827.163,924.765 854.414,915.373C903.244,898.226 943.366,862.55 966.104,816.058C978.031,790.771 984.478,763.249 985.029,735.293C985.687,708.625 979.288,677.455 975.082,650.621L961.245,558.125L954.28,510.51C952.322,497.046 950.702,483.805 946.487,470.787C935.118,435.683 894.431,417.829 859.984,430.196C844.473,435.711 831.794,447.17 824.747,462.049C822.676,466.227 821.186,469.901 820.145,473.336C817.023,483.643 817.929,491.821 819.227,505.136L820.749,516.281C820.937,517.015 821.153,517.69 821.374,518.413L821.709,523.628C822.105,525.038 822.52,526.444 822.955,527.841L823,528.454C824.144,542.928 828.54,565.595 830.862,580.54C836.271,613.706 841.19,646.953 845.611,680.264C847.645,695.572 851.775,709.921 849.91,725.466C845.271,764.123 816.896,789.22 780.443,798.353C763.711,799.909 748.231,799.554 731.475,799.532C710.506,799.556 689.535,799.444 668.569,799.2C628.175,798.968 587.781,799.006 547.386,799.316C523.202,799.399 495.511,798.764 471.605,799.638C459.204,799.534 449.945,799.538 437.674,797.805C410.846,789.384 391.855,780.04 377.934,753.374C372.744,743.597 369.74,732.808 369.125,721.755C368.404,706.121 375.993,662.795 378.381,645.424C382.399,616.022 387.451,585.798 391.866,556.579C394.414,533.704 403.961,500.109 399.754,477.74C393.744,445.794 364.786,425.503 334.705,426.19L334.705,426.189Z" style="fill:url(#_Linear1);"/>
        </g>
        <g transform="matrix(5.997726,0,0,5.997726,-3236.229591,-1504.746621)">
            <path d="M546.395,263.541L546.395,254.81L552.7,254.81L552.7,256.556L548.487,256.556L548.487,258.291L552.372,258.291L552.372,259.996L548.487,259.996L548.487,261.795L552.7,261.795L552.7,263.541L546.395,263.541Z"/>
        </g>
        <g transform="matrix(5.997726,0,0,5.997726,-3236.229591,-1504.746621)">
            <path d="M555.641,263.652C555.227,263.652 554.859,263.583 554.537,263.444C554.215,263.305 553.962,263.097 553.778,262.82C553.594,262.543 553.503,262.193 553.503,261.771C553.503,261.416 553.566,261.117 553.693,260.875C553.82,260.632 553.995,260.436 554.217,260.286C554.44,260.135 554.697,260.02 554.988,259.94C555.279,259.86 555.59,259.806 555.923,259.779C556.294,259.748 556.591,259.714 556.816,259.676C557.041,259.639 557.203,259.586 557.302,259.515C557.402,259.445 557.452,259.345 557.452,259.216L557.452,259.187C557.452,259.05 557.417,258.933 557.346,258.836C557.276,258.738 557.175,258.663 557.045,258.61C556.914,258.557 556.758,258.531 556.579,258.531C556.391,258.531 556.227,258.558 556.087,258.613C555.946,258.668 555.833,258.747 555.747,258.85C555.661,258.954 555.604,259.074 555.577,259.211L553.714,259.105C553.768,258.691 553.916,258.333 554.156,258.03C554.396,257.727 554.723,257.493 555.137,257.327C555.551,257.161 556.048,257.078 556.626,257.078C557.055,257.078 557.445,257.127 557.795,257.224C558.144,257.322 558.444,257.464 558.694,257.649C558.944,257.835 559.135,258.061 559.268,258.329C559.401,258.596 559.467,258.902 559.467,259.246L559.467,263.541L557.522,263.541L557.522,262.65L557.481,262.65C557.364,262.873 557.218,263.058 557.045,263.207C556.871,263.355 556.668,263.466 556.435,263.541C556.203,263.615 555.938,263.652 555.641,263.652ZM556.256,262.316C556.483,262.316 556.688,262.272 556.872,262.184C557.055,262.096 557.201,261.973 557.308,261.815C557.416,261.657 557.469,261.474 557.469,261.267L557.469,260.675C557.415,260.703 557.347,260.729 557.267,260.755C557.187,260.78 557.097,260.802 556.998,260.822C556.898,260.841 556.795,260.861 556.687,260.881C556.58,260.9 556.469,260.92 556.356,260.939C556.169,260.966 556.006,261.011 555.867,261.074C555.728,261.136 555.62,261.217 555.542,261.317C555.464,261.417 555.424,261.537 555.424,261.677C555.424,261.814 555.461,261.93 555.533,262.026C555.605,262.122 555.703,262.194 555.826,262.243C555.949,262.292 556.092,262.316 556.256,262.316Z"/>
        </g>
        <g transform="matrix(5.997726,0,0,5.997726,-3236.229591,-1504.746621)">
            <path d="M563.44,263.681C562.874,263.681 562.373,263.598 561.937,263.432C561.502,263.266 561.151,263.028 560.885,262.717C560.62,262.407 560.458,262.037 560.399,261.607L562.35,261.478C562.405,261.728 562.523,261.923 562.705,262.061C562.886,262.2 563.137,262.269 563.458,262.269C563.739,262.269 563.959,262.22 564.117,262.123C564.275,262.025 564.354,261.894 564.354,261.73C564.354,261.589 564.29,261.475 564.161,261.387C564.032,261.299 563.839,261.232 563.581,261.185L562.45,260.974C561.825,260.857 561.352,260.643 561.032,260.333C560.712,260.022 560.551,259.619 560.551,259.123C560.551,258.705 560.666,258.343 560.894,258.039C561.123,257.734 561.448,257.499 561.87,257.333C562.292,257.167 562.794,257.084 563.376,257.084C563.938,257.084 564.426,257.165 564.84,257.327C565.255,257.489 565.583,257.718 565.825,258.015C566.067,258.312 566.208,258.666 566.247,259.076L564.413,259.205C564.381,258.986 564.278,258.81 564.102,258.677C563.926,258.545 563.702,258.478 563.428,258.478C563.174,258.478 562.968,258.528 562.81,258.628C562.652,258.727 562.573,258.857 562.573,259.017C562.573,259.146 562.63,259.257 562.743,259.351C562.856,259.445 563.032,259.515 563.27,259.562L564.524,259.791C565.165,259.912 565.64,260.112 565.951,260.391C566.261,260.671 566.417,261.045 566.417,261.513C566.417,261.947 566.291,262.327 566.039,262.653C565.787,262.979 565.437,263.232 564.99,263.412C564.543,263.591 564.026,263.681 563.44,263.681Z"/>
        </g>
        <g transform="matrix(5.997726,0,0,5.997726,-3236.229591,-1504.746621)">
            <path d="M570.192,261.66C570.211,261.584 570.23,261.509 570.249,261.434C570.354,261.018 570.473,260.607 570.606,260.201L571.59,257.189L573.694,257.189L570.993,264.332C570.856,264.695 570.688,265.002 570.489,265.252C570.29,265.502 570.046,265.691 569.756,265.82C569.467,265.949 569.116,266.013 568.702,266.013C568.471,266.013 568.24,266.005 568.007,265.987C567.775,265.969 567.563,265.947 567.372,265.92L567.577,264.39L568.169,264.42C568.356,264.447 568.513,264.444 568.64,264.411C568.767,264.378 568.868,264.311 568.942,264.212C569.016,264.112 569.065,263.98 569.089,263.816L569.141,263.541L566.733,257.189L568.866,257.189L569.809,260.201C569.934,260.611 570.045,261.023 570.14,261.437C570.157,261.511 570.175,261.585 570.192,261.66Z"/>
        </g>
        <g transform="matrix(5.997726,0,0,5.997726,-3236.229591,-1504.746621)">
            <path d="M574.444,263.541L574.444,254.81L578.071,254.81C578.719,254.81 579.265,254.904 579.709,255.091C580.152,255.279 580.486,255.539 580.711,255.871C580.935,256.203 581.048,256.588 581.048,257.025C581.048,257.357 580.979,257.655 580.842,257.919C580.706,258.182 580.516,258.4 580.274,258.572C580.032,258.744 579.749,258.867 579.424,258.941L579.424,258.988C579.784,259.004 580.111,259.099 580.406,259.275C580.701,259.451 580.935,259.693 581.109,260.002C581.283,260.31 581.37,260.672 581.37,261.086C581.37,261.562 581.253,261.985 581.018,262.354C580.784,262.723 580.44,263.013 579.987,263.224C579.534,263.435 578.985,263.541 578.34,263.541L574.444,263.541ZM576.501,261.9L577.93,261.9C578.348,261.9 578.668,261.811 578.888,261.633C579.109,261.456 579.219,261.211 579.219,260.898C579.219,260.679 579.168,260.49 579.064,260.33C578.961,260.17 578.815,260.046 578.628,259.958C578.44,259.87 578.215,259.826 577.954,259.826L576.501,259.826L576.501,261.9ZM576.501,258.379L577.807,258.379C578.034,258.379 578.232,258.339 578.402,258.261C578.572,258.183 578.705,258.071 578.8,257.924C578.896,257.778 578.944,257.605 578.944,257.406C578.944,257.113 578.843,256.879 578.642,256.703C578.441,256.527 578.167,256.439 577.819,256.439L576.501,256.439L576.501,258.379Z"/>
        </g>
        <g transform="matrix(5.997726,0,0,5.997726,-3236.229591,-1504.746621)">
            <path d="M586.496,262.365C586.336,262.682 586.136,262.95 585.896,263.169C585.543,263.491 585.075,263.652 584.493,263.652C584.04,263.652 583.649,263.553 583.321,263.356C582.993,263.159 582.74,262.877 582.562,262.509C582.384,262.142 582.296,261.707 582.296,261.203L582.296,257.189L584.329,257.189L584.329,260.798C584.329,261.162 584.42,261.444 584.601,261.645C584.783,261.846 585.036,261.947 585.36,261.947C585.579,261.947 585.768,261.901 585.928,261.809C586.089,261.717 586.214,261.58 586.303,261.396C586.393,261.213 586.438,260.988 586.438,260.722L586.438,257.189L588.471,257.189L588.471,263.541L586.508,263.541L586.496,262.365Z"/>
        </g>
        <g transform="matrix(5.997726,0,0,5.997726,-3236.229591,-1504.746621)">
            <path d="M592.61,261.66L592.667,261.434C592.772,261.018 592.891,260.607 593.024,260.201L594.008,257.189L596.112,257.189L593.411,264.332C593.274,264.695 593.106,265.002 592.907,265.252C592.708,265.502 592.464,265.691 592.174,265.82C591.885,265.949 591.534,266.013 591.12,266.013C590.889,266.013 590.658,266.005 590.425,265.987C590.193,265.969 589.981,265.947 589.79,265.92L589.995,264.39L590.587,264.42C590.774,264.447 590.931,264.444 591.058,264.411C591.185,264.378 591.286,264.311 591.36,264.212C591.434,264.112 591.483,263.98 591.506,263.816L591.559,263.541L589.151,257.189L591.284,257.189L592.227,260.201C592.352,260.611 592.463,261.023 592.558,261.437L592.61,261.66Z"/>
        </g>
    </g>
    <defs>
        <linearGradient id="_Linear1" x1="0" y1="0" x2="1" y2="0" gradientUnits="userSpaceOnUse" gradientTransform="matrix(-475.075053,-172.913099,172.913099,-475.075053,975.704805,773.751817)"><stop offset="0" style="stop-color:rgb(180,0,129);stop-opacity:1"/><stop offset="1" style="stop-color:rgb(74,93,249);stop-opacity:1"/></linearGradient>
    </defs>
</svg>
