<svg xmlns="http://www.w3.org/2000/svg" width="200" height="200" viewBox="0 0 200 200">
  <rect width="200" height="200" fill="white" rx="8"/>
  <rect x="20" y="20" width="60" height="60" fill="#1a1a2e" rx="4"/>
  <rect x="30" y="30" width="12" height="12" fill="white"/>
  <rect x="50" y="30" width="12" height="12" fill="white"/>
  <rect x="30" y="50" width="12" height="12" fill="white"/>
  <rect x="50" y="50" width="12" height="12" fill="white"/>
  <rect x="120" y="20" width="60" height="60" fill="#1a1a2e" rx="4"/>
  <rect x="130" y="30" width="12" height="12" fill="white"/>
  <rect x="150" y="30" width="12" height="12" fill="white"/>
  <rect x="130" y="50" width="12" height="12" fill="white"/>
  <rect x="150" y="50" width="12" height="12" fill="white"/>
  <rect x="20" y="120" width="60" height="60" fill="#1a1a2e" rx="4"/>
  <rect x="30" y="130" width="12" height="12" fill="white"/>
  <rect x="50" y="130" width="12" height="12" fill="white"/>
  <rect x="30" y="150" width="12" height="12" fill="white"/>
  <rect x="50" y="150" width="12" height="12" fill="white"/>
  <rect x="100" y="100" width="16" height="16" fill="#1a1a2e"/>
  <rect x="130" y="100" width="12" height="12" fill="#1a1a2e"/>
  <rect x="100" y="130" width="12" height="12" fill="#1a1a2e"/>
  <rect x="150" y="130" width="20" height="20" fill="#1a1a2e"/>
  <rect x="150" y="160" width="20" height="12" fill="#1a1a2e"/>
  <rect x="130" y="160" width="12" height="12" fill="white"/>
  <rect x="70" y="100" width="12" height="12" fill="#1a1a2e"/>
  <rect x="120" y="80" width="30" height="12" fill="#1a1a2e"/>
  <rect x="120" y="60" width="12" height="12" fill="#1a1a2e"/>
  <rect x="80" y="120" width="12" height="30" fill="#1a1a2e"/>
</svg>
